<svg width="41" height="40" viewBox="0 0 41 40" fill="none" xmlns="http://www.w3.org/2000/svg">
<rect x="0.5" width="40" height="40" rx="20" fill="url(#paint0_linear_391_498)"/>
<path fill-rule="evenodd" clip-rule="evenodd" d="M27.6528 12.3166L32.0467 12.0016C32.1049 11.9995 32.1212 12.0802 32.0659 12.0991L27.4682 13.621C27.4682 13.621 27.4661 13.621 27.4654 13.6217C27.464 13.6217 27.4633 13.6224 27.4618 13.6224C27.3902 13.6378 26.0878 13.9374 26.1581 15.7385C26.2248 17.4456 25.9231 21.8 21.6371 24.7546C20.4078 25.6022 19.6094 26.9374 19.4412 28.4094C19.3475 29.2296 19.4688 30.6715 19.6214 31.8987C19.6335 31.9955 19.5022 32.0397 19.4525 31.9555C18.823 30.8967 16.9777 27.1233 17.1956 22.3753C17.2076 22.1094 16.9883 21.8884 16.7193 21.894C15.3524 21.9221 11.5951 21.7382 9.16068 19.4565C9.15642 19.4523 9.14933 19.4467 9.14081 19.439C9.03506 19.3478 8.65252 19.0173 9.1472 18.9562L16.0898 18.0729C16.6938 17.9978 17.5298 17.8722 17.9585 17.4442C18.219 17.1839 18.258 17.0632 18.3971 16.61C18.9472 14.8145 20.2183 11.0158 24.1928 10.8018C24.1928 10.8018 25.674 10.6987 27.0232 12.0697C27.1879 12.2374 27.4171 12.3272 27.6535 12.3152L27.6528 12.3166ZM13.3027 17.5705C12.9258 17.6175 12.5504 17.4435 12.3296 17.1187L10.2224 14.0265C10.1408 13.9066 10.2586 13.7557 10.3885 13.8125L17.1267 16.7756C17.2807 16.8436 17.2531 17.0759 17.0891 17.0962L13.3027 17.5705Z" fill="white"/>
<defs>
<linearGradient id="paint0_linear_391_498" x1="-10.9634" y1="40" x2="34.8902" y2="3.41463" gradientUnits="userSpaceOnUse">
<stop offset="0.21003" stop-color="#007CD8"/>
<stop offset="0.63794" stop-color="#00B15C"/>
<stop offset="1" stop-color="#FFD600"/>
</linearGradient>
</defs>
</svg>
